<?xml version="1.0" standalone="no"?>
<!DOCTYPE svg PUBLIC "-//W3C//DTD SVG 20010904//EN"
 "http://www.w3.org/TR/2001/REC-SVG-20010904/DTD/svg10.dtd">
<svg version="1.0" xmlns="http://www.w3.org/2000/svg"
 width="101.000000pt" height="101.000000pt" viewBox="0 0 101.000000 101.000000"
 preserveAspectRatio="xMidYMid meet">
<metadata>
Created by potrace 1.11, written by Peter Selinger 2001-2013
</metadata>
<g transform="translate(0.000000,101.000000) scale(0.100000,-0.100000)"
fill="#000000" stroke="none">
<path d="M576 948 c-8 -13 -18 -78 -25 -153 -16 -182 -16 -183 15 -197 23 -11
29 -10 44 9 14 17 18 52 24 179 7 145 6 159 -10 171 -24 18 -31 16 -48 -9z
m34 -74 c0 -41 -4 -63 -10 -59 -18 11 -12 125 7 125 2 0 3 -30 3 -66z m-10
-94 c0 -5 -4 -10 -10 -10 -5 0 -10 5 -10 10 0 6 5 10 10 10 6 0 10 -4 10 -10z
m0 -70 c0 -20 -5 -30 -15 -30 -10 0 -15 10 -15 30 0 20 5 30 15 30 10 0 15
-10 15 -30z m-2 -72 c-6 -18 -28 -21 -28 -4 0 9 7 16 16 16 9 0 14 -5 12 -12z"/>
<path d="M413 914 c-9 -24 7 -297 19 -311 6 -7 21 -13 34 -13 42 0 46 27 30
181 -9 78 -18 145 -22 150 -9 15 -54 10 -61 -7z m46 -71 c1 -17 -3 -35 -9 -38
-6 -4 -10 16 -9 52 0 42 3 52 9 38 5 -11 9 -34 9 -52z m11 -73 c0 -5 -7 -10
-15 -10 -8 0 -15 5 -15 10 0 6 7 10 15 10 8 0 15 -4 15 -10z m0 -49 c0 -5 3
-16 6 -25 4 -10 1 -16 -9 -16 -14 0 -27 20 -27 41 0 5 7 9 15 9 8 0 15 -4 15
-9z m8 -89 c2 -7 -3 -12 -12 -12 -9 0 -16 7 -16 16 0 17 22 14 28 -4z"/>
<path d="M715 888 c-18 -50 -65 -274 -60 -288 3 -11 15 -22 26 -25 15 -5 19
-16 19 -51 0 -24 -3 -44 -6 -44 -3 0 -19 9 -35 21 -17 12 -49 23 -72 26 -26 3
-53 15 -69 31 -24 22 -31 24 -53 14 -28 -13 -32 -43 -11 -81 11 -20 10 -31 -8
-77 -12 -30 -24 -54 -28 -54 -4 0 -19 39 -33 88 -15 48 -28 92 -30 98 -2 6 7
16 21 23 30 13 30 24 -3 141 -29 105 -37 120 -63 120 -36 0 -41 -22 -24 -111
19 -106 91 -354 109 -383 12 -19 11 -28 -18 -86 -25 -51 -32 -60 -35 -43 -6
39 -37 26 -81 -32 -54 -72 -54 -85 4 -85 38 0 45 -3 45 -20 0 -11 7 -20 15
-20 8 0 15 9 15 19 0 11 6 21 13 24 10 4 10 7 0 18 -7 7 -13 27 -13 43 0 30 0
30 16 8 19 -27 38 -28 61 -3 10 11 71 45 136 77 141 69 150 81 166 209 6 50
23 164 38 255 15 91 24 173 20 183 -7 20 -55 23 -62 5z m30 -74 c-3 -25 -11
-42 -16 -38 -9 5 -6 39 8 89 10 33 16 -2 8 -51z m-422 -36 c8 -28 -4 -47 -14
-22 -11 27 -11 44 0 44 5 0 11 -10 14 -22z m407 -38 c0 -5 -4 -10 -10 -10 -5
0 -10 5 -10 10 0 6 5 10 10 10 6 0 10 -4 10 -10z m-390 -30 c0 -5 -4 -10 -10
-10 -5 0 -10 5 -10 10 0 6 5 10 10 10 6 0 10 -4 10 -10z m386 -27 c-3 -8 -6
-17 -6 -19 0 -2 -7 -4 -15 -4 -16 0 -19 9 -9 34 3 8 12 12 20 9 9 -3 13 -12
10 -20z m-369 -29 c-3 -4 -14 -3 -24 0 -15 6 -15 8 -3 16 16 10 39 -4 27 -16z
m353 -39 c0 -8 -7 -15 -15 -15 -8 0 -15 7 -15 15 0 8 7 15 15 15 8 0 15 -7 15
-15z m-340 -11 c0 -9 -5 -14 -12 -12 -18 6 -21 28 -4 28 9 0 16 -7 16 -16z
m122 -69 c0 -5 -5 -11 -11 -13 -6 -2 -11 4 -11 13 0 9 5 15 11 13 6 -2 11 -8
11 -13z m131 -46 c82 -42 75 -157 -11 -190 -63 -24 -132 26 -132 95 l0 41 28
-50 c24 -44 31 -50 64 -53 27 -2 43 3 57 17 31 31 26 65 -15 111 -36 40 -33
50 9 29z m-63 -14 c10 -12 10 -15 -3 -15 -8 0 -20 -7 -28 -16 -11 -14 -13 -14
-22 2 -7 13 -5 21 9 31 23 17 29 16 44 -2z m41 -45 c25 -14 25 -56 -1 -70 -45
-24 -86 44 -42 69 21 13 20 13 43 1z m-132 -103 c12 -15 12 -17 -3 -11 -9 3
-16 13 -16 22 0 8 1 13 3 11 1 -2 9 -12 16 -22z m58 -57 c24 -1 20 -5 -31 -31
-41 -22 -64 -28 -77 -22 -16 7 -16 11 -2 45 l14 36 34 -14 c19 -8 47 -14 62
-14z m-217 -120 c0 -26 -4 -30 -26 -30 l-25 0 21 30 c12 17 23 30 26 30 2 0 4
-13 4 -30z"/>
</g>
</svg>
